<?xml version="1.0" encoding="UTF-8"?>
<svg width="297px" height="76px" viewBox="0 0 297 76" version="1.1" xmlns="http://www.w3.org/2000/svg" xmlns:xlink="http://www.w3.org/1999/xlink">
    <!-- Generator: Sketch 61.2 (89653) - https://sketch.com -->
    <title>logotype-transparent-black</title>
    <desc>Created with Sketch.</desc>
    <g id="Page-1" stroke="none" stroke-width="1" fill="none" fill-rule="evenodd">
        <g id="logotype-transparent-black" fill="#000000">
            <path d="M103.935,48.6042 C103.935,49.8756 103.003,50.9208 101.677,50.9208 C100.387,50.9208 99.455,49.8732 99.455,48.6042 L99.455,26.5161 C99.455,25.2446 100.387,24.1994 101.713,24.1994 C103.003,24.1994 103.935,25.247 103.935,26.5161 L103.935,48.6042 Z" id="Path"></path>
            <path d="M132.892,26.5161 L132.892,46.6994 C132.892,49.428 131.495,50.9613 129.273,50.9613 L129.095,50.9613 C126.981,50.9613 125.976,49.6899 125.081,47.8208 L120.565,38.6637 L116.551,29.2089 L116.659,38.3661 L116.695,48.5685 C116.695,49.8399 115.764,50.8851 114.437,50.8851 C113.147,50.8851 112.216,49.8375 112.216,48.5685 L112.216,28.3851 C112.216,25.8804 113.613,24.1232 116.051,24.1232 L116.23,24.1232 C118.488,24.1232 119.419,25.3947 120.316,27.2637 L124.759,36.347 L128.558,45.1685 L128.451,36.7208 L128.415,26.5185 C128.415,25.247 129.346,24.2018 130.673,24.2018 C131.96,24.1994 132.892,25.2447 132.892,26.5161 Z" id="Path"></path>
            <path d="M150.848,48.5685 C150.848,49.8399 149.917,50.8851 148.59,50.8851 C147.301,50.8851 146.369,49.8375 146.369,48.5685 L146.369,28.5732 L140.814,28.5732 C139.668,28.5732 138.737,27.6756 138.737,26.3684 C138.737,25.097 139.668,24.2018 140.814,24.2018 L156.403,24.2018 C157.549,24.2018 158.481,25.0994 158.481,26.4065 C158.481,27.678 157.549,28.5732 156.403,28.5732 L150.848,28.5732 L150.848,48.5685 Z" id="Path"></path>
            <path d="M164.323,47.8208 L164.323,27.078 C164.323,25.1351 165.362,24.0518 167.262,24.1256 L180.164,24.1256 C181.31,24.1256 182.241,25.0589 182.241,26.3304 C182.241,27.6018 181.31,28.497 180.164,28.497 L168.766,28.497 L168.766,34.9256 L178.837,34.9256 C179.949,34.9256 180.844,35.7851 180.844,37.0185 C180.844,38.2518 179.949,39.1113 178.837,39.1113 L168.766,39.1113 L168.766,46.5113 L180.164,46.5113 C181.31,46.5113 182.241,47.4447 182.241,48.7161 C182.241,49.9875 181.31,50.8828037 180.164,50.8828037 L167.154,50.8828037 C165.291,50.8851 164.253,49.8018 164.323,47.8208 Z" id="Path"></path>
            <path d="M206.65,50.997 C207.904,50.3232 208.299,48.9399 207.689,47.8566 L203.209,39.5613 C206.901,38.8137 209.052,35.9732 209.052,32.1232 C209.052,28.0875 206.616,24.1256 200.773,24.1256 L192.28,24.1256 C190.381,24.0518 189.342,25.1351 189.342,27.078 L189.342,48.6066 C189.342,49.8756 190.273,50.9232 191.563,50.9232 C192.89,50.9232 193.821,49.878 193.821,48.6066 L193.785,40.4589 L198.515,40.4589 L203.497,50.0637 C204.104,51.147 205.431,51.6328 206.65,50.997 Z M200.878,36.2328 L193.782,36.2328 L193.782,28.4947 L200.842,28.4947 C203.207,28.4947 204.534,30.0637 204.534,32.3447 C204.534,34.6256 203.28,36.2328 200.878,36.2328 Z" id="Shape"></path>
            <path d="M218.296,48.9042 C215.609,46.3994 214.39,42.4756 214.39,37.5423 C214.39,32.5708 215.573,28.6851 218.226,26.2184 C219.874,24.7232 222.095,23.7137 225.322,23.7137 C228.153,23.7137 230.34,24.3875 231.988,25.8446 C233.422,27.0399 234.461,28.7232 235.07,31.078 C235.392,32.3113 234.568,33.5446 233.207,33.8065 C231.917,34.0304 230.879,33.1708 230.484,31.9375 C230.054,30.7423 229.479,29.8827 228.799,29.2827 C227.867,28.4232 226.721,28.0494 225.214,28.0494 C223.602,28.0494 222.203,28.5351 221.164,29.6184 C219.659,31.1875 219.013,33.9923 219.013,37.5423 C219.013,41.0565 219.623,43.8589 221.2,45.428 C222.239,46.5113 223.602,46.997 225.178,46.997 C226.826,46.997 228.08,46.5494 229.121,45.5399 C229.657,45.0161 230.125,44.3446 230.447,43.5589 C230.913,42.3994 231.881,41.5399 233.134,41.8399 C234.388,42.1399 235.178,43.4089 234.783,44.6423 C234.137,46.697 233.027,48.3423 231.522,49.4637 C229.874,50.697 227.831,51.3327 225.251,51.3327 C221.954,51.3327 219.874,50.3232 218.296,48.9042 Z" id="Path"></path>
            <path d="M251.198,23.7137 C243.42,23.7137 240.123,29.1708 240.123,37.5423 C240.123,46.1756 243.386,51.3708 251.198,51.3708 C258.867,51.3708 262.237,46.1756 262.237,37.5423 C262.237,29.0208 258.904,23.7137 251.198,23.7137 Z M251.162,28.0875 C255.427,28.0875 257.648,31.1875 257.648,37.5423 C257.648,43.8946 255.39,46.997 251.162,46.997 C246.897,46.997 244.746,43.897 244.746,37.5423 C244.746,31.1899 246.968,28.0875 251.162,28.0875 Z" id="Shape"></path>
            <path d="M297,48.5684 C297,49.8399 296.068,50.8851 294.742,50.8851 C293.452,50.8851 292.52,49.8375 292.52,48.5684 L292.52,38.5518 L292.628,28.797 L289.509,38.7018 L286.356,48.4565 C285.82,50.1756 284.708,50.8494 283.31,50.8494 C281.84,50.8494 280.765,50.1399 280.192,48.4208 L276.966,38.7042 L273.991,28.9494 L274.098,38.5542 L274.098,48.5708 C274.098,49.8423 273.166,50.8875 271.84,50.8875 C270.55,50.8875 269.619,49.8399 269.619,48.5708 L269.619,28.5756 C269.619,25.8089 271.052,24.2018 273.561,24.2018 C275.927,24.2018 277.253,25.5089 278.004,27.9018 L281.301,38.1042 L283.308,45.0565 L285.351,38.1042 L288.648,27.9018 C289.402,25.5089 290.692,24.2018 293.057,24.2018 C295.566,24.2018 296.963,25.7708 296.963,28.5756 L297,48.5684 Z" id="Path"></path>
            <path d="M63.2824,41.3609 C63.2824,42.0294 63.0263,42.6706 62.5705,43.1434 C62.1146,43.6161 61.4963,43.8817 60.8516,43.8817 C60.2069,43.8817 59.5886,43.6161 59.1327,43.1434 C58.6768,42.6706 58.4207,42.0294 58.4207,41.3609 L58.4207,18.8401 C58.4207,18.1715 58.6768,17.5303 59.1327,17.0576 C59.5886,16.5848 60.2069,16.3192 60.8516,16.3192 C61.4963,16.3192 62.1146,16.5848 62.5705,17.0576 C63.0263,17.5303 63.2824,18.1715 63.2824,18.8401 L63.2824,41.3609 Z M62.4387,56.965 C62.1172,57.2984 53.0769,65.1109 36.5029,65.1109 C19.9289,65.1109 10.9489,57.34 10.5672,57.0067 C10.3266,56.7964 10.1285,56.5389 9.9841,56.249 C9.8397,55.959 9.752,55.6424 9.7258,55.3173 C9.6997,54.9921 9.7357,54.6648 9.8318,54.3541 C9.9279,54.0434 10.0822,53.7554 10.2859,53.5067 C10.7055,53.0033 11.2999,52.6923 11.9397,52.6416 C12.5795,52.5908 13.2127,52.8045 13.7011,53.2359 C13.8418,53.34 21.9178,60.1317 36.4828,60.1317 C51.0478,60.1317 59.1841,53.2984 59.2645,53.2359 C59.7584,52.8084 60.3937,52.5975 61.0352,52.6481 C61.6767,52.6986 62.2739,53.0067 62.6998,53.5067 C63.1097,54.0026 63.3143,54.6462 63.2691,55.2977 C63.224,55.9492 62.9328,56.5558 62.4588,56.9859 L62.4387,56.965 Z M9.7033,18.8401 C9.7396,18.1694 10.0305,17.5409 10.5124,17.0919 C10.9942,16.643 11.6279,16.4101 12.2748,16.4442 C12.8745,16.4795 13.4404,16.7439 13.8633,17.1863 C14.2862,17.6287 14.5362,18.2178 14.565,18.8401 L14.565,41.3192 C14.565,41.9878 14.3089,42.629 13.853,43.1017 C13.3972,43.5745 12.7789,43.84 12.1342,43.84 C11.4895,43.84 10.8712,43.5745 10.4153,43.1017 C9.9594,42.629 9.7033,41.9878 9.7033,41.3192 L9.7033,18.8401 Z M21.8977,13.8401 C21.9341,13.1694 22.2249,12.5409 22.7068,12.0919 C23.1886,11.643 23.8223,11.4101 24.4692,11.4442 C25.0689,11.4795 25.6348,11.7439 26.0577,12.1863 C26.4806,12.6287 26.7306,13.2178 26.7594,13.8401 L26.7594,47.1734 C26.7594,47.8419 26.5033,48.4831 26.0475,48.9559 C25.5916,49.4286 24.9733,49.6942 24.3286,49.6942 C23.6839,49.6942 23.0656,49.4286 22.6097,48.9559 C22.1538,48.4831 21.8977,47.8419 21.8977,47.1734 L21.8977,13.8401 Z M34.1524,12.5901 C34.1524,11.9215 34.4085,11.2803 34.8644,10.8076 C35.3203,10.3348 35.9386,10.0692 36.5833,10.0692 C37.228,10.0692 37.8463,10.3348 38.3021,10.8076 C38.758,11.2803 39.0141,11.9215 39.0141,12.5901 L39.0141,48.84 C39.0141,49.5086 38.758,50.1498 38.3021,50.6225 C37.8463,51.0953 37.228,51.3609 36.5833,51.3609 C35.9386,51.3609 35.3203,51.0953 34.8644,50.6225 C34.4085,50.1498 34.1524,49.5086 34.1524,48.84 L34.1524,12.5901 Z M46.2062,13.8401 C46.2062,13.1715 46.4623,12.5303 46.9182,12.0576 C47.3741,11.5848 47.9924,11.3192 48.6371,11.3192 C49.2818,11.3192 49.9001,11.5848 50.3559,12.0576 C50.8118,12.5303 51.0679,13.1715 51.0679,13.8401 L51.0679,47.1734 C51.0679,47.8419 50.8118,48.4831 50.3559,48.9559 C49.9001,49.4286 49.2818,49.6942 48.6371,49.6942 C47.9924,49.6942 47.3741,49.4286 46.9182,48.9559 C46.4623,48.4831 46.2062,47.8419 46.2062,47.1734 L46.2062,13.8401 Z M63.9454,0.0898885284 L9.1408,0.0898885284 C7.9466,0.0818 6.7626,0.3179 5.6566,0.7849 C4.5505,1.2518 3.5442,1.9404 2.6951,2.8112 C1.846,3.6821 1.1709,4.718 0.7085,5.8598 C0.246,7.0015 0.0053,8.2267 0,9.4651 L0,65.715 C0.0053,66.9534 0.246,68.1786 0.7085,69.3203 C1.1709,70.4621 1.846,71.498 2.6951,72.3689 C3.5442,73.2397 4.5505,73.9283 5.6566,74.3952 C6.7626,74.8622 7.9466,75.098 9.1408,75.0901975 L63.9454,75.0901975 C65.1379,75.098 66.3202,74.8629 67.425,74.3972 C68.5297,73.9316 69.5352,73.2448 70.384,72.3762 C71.2328,71.5076 71.9083,70.4741 72.372,69.3348 C72.8356,68.1954 73.0783,66.9725 73.0862,65.7359 L73.0862,9.4651 C73.0809,8.2284 72.8408,7.005 72.3796,5.8646 C71.9184,4.7242 71.2451,3.6892 70.3982,2.8186 C69.5512,1.9481 68.5472,1.2591 67.4435,0.7909 C66.3398,0.3227 65.158,0.0846 63.9655,0.0898885284" id="Shape" fill-rule="nonzero"></path>
        </g>
    </g>
</svg>