<svg xmlns="http://www.w3.org/2000/svg" viewBox="0 0 446.4 127.5"><defs><style>.cls-1{fill:#95bf47;}.cls-2{fill:#5e8e3e;}.cls-3{fill:#fff;}</style></defs><title>Asset 1</title><g id="Layer_2" data-name="Layer 2"><g id="Layer_1-2" data-name="Layer 1"><path class="cls-1" d="M95.9,24.2a1.16,1.16,0,0,0-1.1-1c-.5,0-10-.7-10-.7s-6.6-6.6-7.4-7.3a3,3,0,0,0-2.7-.3c-.1,0-1.5.4-3.7,1.1C68.8,9.6,64.9,3.7,58,3.7h-.6C55.4,1.1,53,0,50.9,0,34.8,0,27.1,20.1,24.7,30.3c-6.2,1.9-10.7,3.3-11.2,3.5-3.5,1.1-3.6,1.2-4,4.5C9.1,40.7,0,111.2,0,111.2l71,13.3,38.5-8.3S96,24.9,95.9,24.2ZM67,17.2c-1.8.6-3.8,1.2-6,1.9V17.8a31.67,31.67,0,0,0-1.4-9.7C63.2,8.5,65.5,12.5,67,17.2ZM55.2,8.8a29.58,29.58,0,0,1,1.6,10.8v.7c-3.9,1.2-8.2,2.5-12.4,3.8C46.8,15,51.3,10.5,55.2,8.8ZM50.4,4.3a3.52,3.52,0,0,1,2.1.7c-5.1,2.4-10.7,8.5-13,20.7-3.4,1.1-6.7,2.1-9.8,3C32.4,19.4,38.9,4.3,50.4,4.3Z"/><path class="cls-2" d="M94.8,23.2c-.5,0-10-.7-10-.7s-6.6-6.6-7.4-7.3a1.91,1.91,0,0,0-1-.5L71,124.5l38.5-8.3S96,24.9,95.9,24.3A1.38,1.38,0,0,0,94.8,23.2Z"/><path class="cls-3" d="M57.9,44.5,53.2,58.6A22.13,22.13,0,0,0,44,56.4c-7.5,0-7.8,4.7-7.8,5.9,0,6.4,16.8,8.9,16.8,24,0,11.9-7.5,19.5-17.7,19.5-12.2,0-18.4-7.6-18.4-7.6l3.3-10.8s6.4,5.5,11.8,5.5a4.82,4.82,0,0,0,5-4.8c0-8.4-13.8-8.8-13.8-22.6,0-11.6,8.3-22.9,25.2-22.9C54.7,42.6,57.9,44.5,57.9,44.5Z"/><path id="s" d="M154.3,70.9c-3.8-2.1-5.8-3.8-5.8-6.2,0-3.1,2.7-5,7-5a24.54,24.54,0,0,1,9.4,2.1l3.5-10.7s-3.2-2.5-12.7-2.5c-13.2,0-22.4,7.6-22.4,18.2,0,6,4.3,10.6,10,13.9,4.6,2.6,6.2,4.5,6.2,7.2,0,2.9-2.3,5.2-6.6,5.2a29.39,29.39,0,0,1-12.4-3.3l-3.7,10.7s5.6,3.7,14.9,3.7c13.6,0,23.3-6.7,23.3-18.7C165.2,78.9,160.2,74.3,154.3,70.9Z"/><path id="h" d="M208.5,48.4c-6.7,0-11.9,3.2-16,8l-.2-.1,5.8-30.4H183l-14.7,77.3h15.1l5-26.4c2-10,7.1-16.1,11.9-16.1,3.4,0,4.7,2.3,4.7,5.6a30.51,30.51,0,0,1-.7,6.7l-5.7,30.3h15.1l5.9-31.2a52.53,52.53,0,0,0,1.1-9.9C220.8,53.5,216.3,48.4,208.5,48.4Z"/><path id="o" d="M255,48.4c-18.2,0-30.3,16.4-30.3,34.7,0,11.7,7.2,21.2,20.8,21.2,17.9,0,29.9-16,29.9-34.7C275.5,58.7,269.2,48.4,255,48.4Zm-7.4,44.2c-5.2,0-7.3-4.4-7.3-9.9,0-8.7,4.5-22.8,12.7-22.8,5.4,0,7.1,4.6,7.1,9.1C260.1,78.4,255.6,92.6,247.6,92.6Z"/><path id="p" d="M314.2,48.4c-10.2,0-16,9-16,9H298l.9-8.1H285.5c-.7,5.5-1.9,13.8-3.1,20.1l-10.5,55.4H287l4.2-22.4h.3s3.1,2,8.9,2c17.8,0,29.4-18.2,29.4-36.6C329.8,57.5,325.3,48.4,314.2,48.4ZM299.8,92.9a9.46,9.46,0,0,1-6.2-2.2l2.5-14.1c1.8-9.4,6.7-15.7,11.9-15.7,4.6,0,6,4.3,6,8.3C314,78.9,308.2,92.9,299.8,92.9Z"/><path id="dot" d="M351.4,26.6a8.67,8.67,0,0,0-8.7,8.8c0,4.5,2.8,7.6,7.1,7.6h.2a8.58,8.58,0,0,0,8.9-8.8A7.11,7.11,0,0,0,351.4,26.6Z"/><polygon id="i" points="330.2 103.2 345.4 103.2 355.7 49.6 340.4 49.6 330.2 103.2"/><path id="f" d="M394.1,49.4H383.6l.5-2.5c.9-5.2,3.9-9.8,9-9.8a14.9,14.9,0,0,1,4.8.8l3-11.8s-2.6-1.3-8.2-1.3a22.5,22.5,0,0,0-14.8,5c-5.2,4.4-7.6,10.7-8.8,17.1l-.4,2.5h-7l-2.2,11.4h7l-8,42.3h15.1l8-42.3H392Z"/><path id="y" d="M430.5,49.6S421,73.4,416.8,86.4h-.2c-.3-4.2-3.7-36.8-3.7-36.8H397l9.1,49.2a3.38,3.38,0,0,1-.3,2.5,26.23,26.23,0,0,1-8.2,9.1,32.38,32.38,0,0,1-8.5,4.3l4.2,12.8a35.4,35.4,0,0,0,14.8-8.2c6.9-6.5,13.3-16.4,19.8-30l18.5-39.7Z"/></g></g></svg>