<svg xmlns="http://www.w3.org/2000/svg" viewBox="0 0 148.23 20.1"><path d="M36.3 8.67a1.33 1.33 0 0 1-.26.27.54.54 0 0 1-.35.09.87.87 0 0 1-.49-.16l-.61-.36a5.74 5.74 0 0 0-.84-.36A4.24 4.24 0 0 0 32.52 8a4 4 0 0 0-1.68.34 3.18 3.18 0 0 0-1.21 1 4.14 4.14 0 0 0-.74 1.52 7.77 7.77 0 0 0-.24 2 7.63 7.63 0 0 0 .26 2.07 4.46 4.46 0 0 0 .75 1.53 3.28 3.28 0 0 0 1.18.94 3.79 3.79 0 0 0 1.55.33 4 4 0 0 0 1.39-.21 4.1 4.1 0 0 0 .89-.44l.62-.45a.78.78 0 0 1 .53-.2.62.62 0 0 1 .55.27l.84 1.07a5.29 5.29 0 0 1-1.13 1 6.18 6.18 0 0 1-1.3.68 7 7 0 0 1-1.43.38 10.56 10.56 0 0 1-1.49.11 6 6 0 0 1-2.43-.48 5.6 5.6 0 0 1-2-1.39 6.86 6.86 0 0 1-1.33-2.24 8.73 8.73 0 0 1-.48-3 8.83 8.83 0 0 1 .46-2.83 6.38 6.38 0 0 1 1.28-2.25 5.88 5.88 0 0 1 2.09-1.47 7.32 7.32 0 0 1 2.88-.53 6.86 6.86 0 0 1 2.67.5 6.38 6.38 0 0 1 2.06 1.38zm9.07-2.92a7.28 7.28 0 0 1 2.81.5 6 6 0 0 1 2.14 1.41 6.48 6.48 0 0 1 1.37 2.24 8.62 8.62 0 0 1 .48 2.93 8.67 8.67 0 0 1-.48 2.94A6.35 6.35 0 0 1 50.32 18a5.84 5.84 0 0 1-2.14 1.43 8.14 8.14 0 0 1-5.63 0A5.84 5.84 0 0 1 40.41 18 6.37 6.37 0 0 1 39 15.77a8.66 8.66 0 0 1-.47-2.94A8.61 8.61 0 0 1 39 9.9a6.51 6.51 0 0 1 1.38-2.24 6 6 0 0 1 2.14-1.41 7.37 7.37 0 0 1 2.82-.5m0 11.94a3.28 3.28 0 0 0 2.83-1.25 6 6 0 0 0 .92-3.58 6 6 0 0 0-.92-3.59A3.29 3.29 0 0 0 45.37 8a3.31 3.31 0 0 0-2.85 1.26 5.93 5.93 0 0 0-.93 3.59 5.88 5.88 0 0 0 .93 3.58 3.33 3.33 0 0 0 2.85 1.25m12.39-9.89a8.3 8.3 0 0 1 1-.83 6.87 6.87 0 0 1 1-.65 5.32 5.32 0 0 1 1.17-.44 5.54 5.54 0 0 1 1.35-.16 5.18 5.18 0 0 1 2 .38 4.17 4.17 0 0 1 1.49 1.07 4.63 4.63 0 0 1 .9 1.66 7.29 7.29 0 0 1 .27 2.18v8.8H64V11a3.27 3.27 0 0 0-.65-2.2 2.46 2.46 0 0 0-2-.73 3.86 3.86 0 0 0-1.83.44A6.74 6.74 0 0 0 58 9.73V19.8h-3V6h1.78a.73.73 0 0 1 .74.56zM82.29.29V19.8H80.5a.73.73 0 0 1-.74-.56l-.26-1.5a7.31 7.31 0 0 1-2 1.63 5.24 5.24 0 0 1-2.6.63 4.94 4.94 0 0 1-2.14-.46 4.67 4.67 0 0 1-1.65-1.37A6.71 6.71 0 0 1 70 16a11.48 11.48 0 0 1-.37-3 9.2 9.2 0 0 1 .42-2.85 6.84 6.84 0 0 1 1.2-2.28 5.51 5.51 0 0 1 4.45-2.12 4.78 4.78 0 0 1 3.64 1.47V.29zm-3 9.07A3.44 3.44 0 0 0 78 8.26 4 4 0 0 0 76.35 8a3.23 3.23 0 0 0-2.71 1.2 6 6 0 0 0-1 3.67 9 9 0 0 0 .23 2.2 4.25 4.25 0 0 0 .63 1.47 2.47 2.47 0 0 0 1 .82 3.49 3.49 0 0 0 1.36.24 3.75 3.75 0 0 0 1.94-.48 5.53 5.53 0 0 0 1.49-1.36zM97.68 6v13.8H95.9a.75.75 0 0 1-.75-.56L94.94 18a9.28 9.28 0 0 1-.93.84 6.15 6.15 0 0 1-1 .65 5.65 5.65 0 0 1-2.52.56 5 5 0 0 1-2-.37A4.17 4.17 0 0 1 87 18.57a4.67 4.67 0 0 1-.91-1.7 7.41 7.41 0 0 1-.29-2.14v-8.8h3v8.8a3.27 3.27 0 0 0 .66 2.17 2.41 2.41 0 0 0 2 .77 3.74 3.74 0 0 0 1.82-.44A6 6 0 0 0 94.76 16V6zm13.49 2.67a1.66 1.66 0 0 1-.26.27.57.57 0 0 1-.36.09.89.89 0 0 1-.49-.16c-.16-.11-.36-.22-.6-.36a6.24 6.24 0 0 0-.84-.36 4.31 4.31 0 0 0-1.24-.15 3.89 3.89 0 0 0-1.68.34 3.15 3.15 0 0 0-1.2 1 4 4 0 0 0-.75 1.52 7.77 7.77 0 0 0-.24 2 7.27 7.27 0 0 0 .27 2.07 4.26 4.26 0 0 0 .74 1.53 3.28 3.28 0 0 0 1.18.94 3.8 3.8 0 0 0 1.56.33 4 4 0 0 0 1.38-.21 4.33 4.33 0 0 0 .89-.44c.24-.17.45-.31.61-.45a.83.83 0 0 1 .55-.2.65.65 0 0 1 .55.27l.84 1.07a5.82 5.82 0 0 1-1.13 1 6.52 6.52 0 0 1-1.31.68 7.1 7.1 0 0 1-1.42.38 10.67 10.67 0 0 1-1.49.11 5.92 5.92 0 0 1-2.43-.48 5.52 5.52 0 0 1-2-1.39 6.53 6.53 0 0 1-1.3-2.22 8.51 8.51 0 0 1-.49-3 8.83 8.83 0 0 1 .44-2.84 6.38 6.38 0 0 1 1.28-2.25 6.05 6.05 0 0 1 2.09-1.47 7.34 7.34 0 0 1 2.89-.53 6.8 6.8 0 0 1 2.67.49 6.31 6.31 0 0 1 2.07 1.38zm19.26-2.92a7.32 7.32 0 0 1 2.81.5 6 6 0 0 1 2.13 1.41 6.48 6.48 0 0 1 1.37 2.24 8.62 8.62 0 0 1 .48 2.93 8.67 8.67 0 0 1-.48 2.94 6.33 6.33 0 0 1-1.37 2.23 5.76 5.76 0 0 1-2.14 1.43 8.11 8.11 0 0 1-5.62 0 5.8 5.8 0 0 1-2.15-1.43 6.21 6.21 0 0 1-1.37-2.23 8.68 8.68 0 0 1-.49-2.94 8.59 8.59 0 0 1 .49-2.93 6.33 6.33 0 0 1 1.37-2.24 6 6 0 0 1 2.15-1.41 7.3 7.3 0 0 1 2.82-.5m0 11.94a3.24 3.24 0 0 0 2.81-1.25 5.9 5.9 0 0 0 .93-3.58 5.93 5.93 0 0 0-.93-3.59A3.23 3.23 0 0 0 130.43 8a3.32 3.32 0 0 0-2.86 1.26 6 6 0 0 0-.93 3.59 6 6 0 0 0 .93 3.58 3.34 3.34 0 0 0 2.86 1.25m12.38-9.16a6.18 6.18 0 0 1 1.59-2.07 3.5 3.5 0 0 1 2.23-.73 3.55 3.55 0 0 1 .86.1 2.81 2.81 0 0 1 .74.3l-.23 2.2a.46.46 0 0 1-.17.32.49.49 0 0 1-.31.09 3 3 0 0 1-.59-.08 5.42 5.42 0 0 0-.81-.07 2.82 2.82 0 0 0-1.08.18 2.58 2.58 0 0 0-.86.51 3.55 3.55 0 0 0-.66.83 7.12 7.12 0 0 0-.54 1.11v8.59h-3V6h1.72a1 1 0 0 1 .64.17 1.08 1.08 0 0 1 .25.59zm-21.21 8.81a.45.45 0 0 0-.4-.27.41.41 0 0 0-.26.09l-.3.19a3.25 3.25 0 0 1-.43.18 2 2 0 0 1-.59.09 1.35 1.35 0 0 1-1-.39 1.59 1.59 0 0 1-.37-1.14V8.25h3.89v-2.1h-3.89V1.47h-2.79v4.68h-2.31v2.09h2.13v8.07a3.74 3.74 0 0 0 .94 2.72 3.57 3.57 0 0 0 2.68 1 6 6 0 0 0 1.92-.32 4.88 4.88 0 0 0 1.62-.91z"/><path d="M20.71 17a3.19 3.19 0 1 1-3.19-3.14 3.22 3.22 0 0 1 2.26.92 3.15 3.15 0 0 1 .93 2.22zM6.37 3.14a3.17 3.17 0 0 1-3.19 3.14A3.17 3.17 0 0 1 0 3.14 3.17 3.17 0 0 1 3.18 0a3.17 3.17 0 0 1 3.19 3.14zm7.14 0a3.19 3.19 0 0 1-6.37 0A3.17 3.17 0 0 1 10.32 0a3.22 3.22 0 0 1 2.26.92 3.15 3.15 0 0 1 .93 2.22zm-7.14 6.91a3.16 3.16 0 0 1-3.19 3.14 3.14 3.14 0 1 1 0-6.27 3.21 3.21 0 0 1 2.25.91 3.12 3.12 0 0 1 .94 2.22zm7.14 0a3.19 3.19 0 1 1-3.19-3.13 3.25 3.25 0 0 1 2.26.91 3.15 3.15 0 0 1 .93 2.22zm7.2.22a3.19 3.19 0 1 1-3.19-3.14 3.22 3.22 0 0 1 2.26.92 3.12 3.12 0 0 1 .93 2.22zM13.51 17a3.19 3.19 0 1 1-3.19-3.14 3.22 3.22 0 0 1 2.26.92 3.15 3.15 0 0 1 .93 2.22z" fill="#88c32d"/></svg>