<?xml version="1.0" encoding="UTF-8" standalone="no"?>
<svg
   xmlns:dc="http://purl.org/dc/elements/1.1/"
   xmlns:cc="http://creativecommons.org/ns#"
   xmlns:rdf="http://www.w3.org/1999/02/22-rdf-syntax-ns#"
   xmlns:svg="http://www.w3.org/2000/svg"
   xmlns="http://www.w3.org/2000/svg"
   viewBox="0 0 133.33333 66.666664"
   height="66.666664"
   width="133.33333"
   xml:space="preserve"
   id="svg2"
   version="1.1"><metadata
     id="metadata8"><rdf:RDF><cc:Work
         rdf:about=""><dc:format>image/svg+xml</dc:format><dc:type
           rdf:resource="http://purl.org/dc/dcmitype/StillImage" /></cc:Work></rdf:RDF></metadata><defs
     id="defs6" /><g
     transform="matrix(1.3333333,0,0,-1.3333333,0,66.666667)"
     id="g10"><g
       transform="scale(0.1)"
       id="g12"><path
         id="path14"
         style="fill:#ee4e1d;fill-opacity:1;fill-rule:nonzero;stroke:none"
         d="m 520.648,162.453 c -50.152,0 -77.824,29.719 -77.824,66.758 0,15.07 0.699,127.051 0.699,127.051 -16.402,0 -24.48,8.613 -24.48,19.379 0,10.765 8.555,20.726 22.59,20.726 0,0 0.023,37.442 0.023,52.946 0,17.66 13.707,32.3 31.434,32.3 17.73,0 31.808,-14.64 31.808,-32.3 0,-13.352 -1.164,-31.758 -1.117,-52.153 1.473,0.016 14.137,0.016 32.727,0.235 17.234,0.203 24.258,-9.426 24.258,-21.485 0,-12.058 -9.282,-20.472 -21.383,-20.523 -11.219,-0.043 -35.992,0.093 -35.992,0.093 -1.129,-35.71 -2.196,-78.761 -2.196,-113.214 0,-12.426 8.575,-26.625 29.332,-26.625 47.555,0 61.266,48.007 61.266,138.464 0,12.063 9.52,21.536 21.629,21.536 12.101,0 21.613,-9.473 21.613,-21.536 0,-118.433 -30.07,-191.652 -114.387,-191.652" /><path
         id="path16"
         style="fill:#ee4e1d;fill-opacity:1;fill-rule:nonzero;stroke:none"
         d="m 723.711,352.008 c 0.039,0.066 20.25,13.847 32.352,13.847 12.109,0 10.343,-2.117 10.343,-14.171 0,-129.207 -23.386,-189.512 -107.015,-189.512 -36.344,0 -70.274,27.137 -70.274,60.297 0,12.922 2.164,38.761 2.164,51.679 0,124.899 -1.933,151.297 -1.933,187.903 0,17.66 14.699,33.441 32.425,33.441 17.735,0 30.809,-14.168 30.809,-31.828 0,-36.605 -3.953,-89.855 -5.094,-227.738 -0.093,-11.535 5.535,-19.66 20.477,-19.66 46.695,0 53.914,59.16 55.746,135.742" /><path
         id="path18"
         style="fill:#ee4e1d;fill-opacity:1;fill-rule:nonzero;stroke:none"
         d="m 882.965,113.652 c -39.883,-8.605 -89.844,-21.1793 -89.266,-45.7379 0.547,-23.0274 24.324,-27.2188 44.149,-23.125 41.172,8.5117 45.953,33.2851 45.117,68.8629 z m -7.692,70.75 c 0,0 -17.57,-23.043 -62.101,-21.929 -59.055,1.476 -86.422,48.355 -89.32,96.582 -2.196,36.543 -1.204,62.379 -1.204,86.062 0,17.66 11.762,31.953 29.497,31.953 17.726,0 28.148,-14.64 28.148,-32.3 0,-23.684 -1.453,-44.485 -1.711,-70.325 -0.309,-31.172 10.34,-58.632 36.281,-58.554 24.907,0.07 52.258,10.554 52.926,63.949 0.32,25.836 -0.559,41.246 -0.559,64.93 0,17.66 12.305,32.3 30.04,32.3 17.718,0 30.035,-14.64 30.035,-32.3 0,-23.684 -1.938,-47.157 -1.938,-83.762 0,0 -1.086,-73.949 1.512,-90.317 8.133,2.707 19.863,10.657 32.297,29.922 7.504,11.633 21.851,14.129 30.691,8.977 12.173,-7.094 11.743,-20.953 7.192,-31.078 -11.75,-26.137 -27.032,-42.133 -65.661,-55.375 C 931.52,78.8008 928.434,13.3945 846.465,1.57422 776.266,-8.55078 744.516,32.1602 744.41,66.8008 744.242,121.496 798.906,137.43 877.805,157.297 l -2.532,27.105" /><path
         id="path20"
         style="fill:#ee4e1d;fill-opacity:1;fill-rule:nonzero;stroke:none"
         d="m 314.316,222.449 c 0,15.071 -1.675,136.293 -1.675,136.293 0,17.656 11.386,32.613 29.113,32.613 17.726,0 29.504,-15.968 28.875,-32.828 -2.129,-56.769 -2.988,-94.136 -2.988,-113.91 0,-11.441 6.242,-28.976 24.722,-28.976 42.778,0 51.606,39.636 51.606,135.324 0,12.058 12.039,21.531 24.144,21.531 12.11,0 21.621,-9.473 21.621,-21.531 0,-144.785 -25.191,-188.676 -107.089,-188.676 -33.29,0 -68.329,20.977 -68.329,60.16" /><path
         id="path22"
         style="fill:#ee4e1d;fill-opacity:1;fill-rule:nonzero;stroke:none"
         d="m 147.672,216.598 c -27.375,-0.481 -44.832,10.332 -46.055,34.168 -0.457,8.941 -0.312,16.601 0.125,22.343 2.649,34.829 24.59,57.387 48.719,62.2 30.016,5.984 50.008,-7.692 50.008,-46.836 0,-26.453 -7.371,-71.082 -52.797,-71.875 z m 185.953,163.668 c -11.742,0 -12.504,-2.43 -20.289,-14.618 0,-53.484 -5.504,-111.828 -74.258,-143.539 46.137,83.778 1.235,171.336 -69.488,171.336 -33.973,0 -54.305,-12.097 -68.145,-23.379 0,25.899 0.868,71.887 0.868,71.887 0,31.926 -11.2232,57.485 -50.3521,58.039 -22.6484,0.324 -39.4531,-10.027 -49.93356,-33.418 -3.77734,-8.773 -2.386715,-18.308 5.08204,-22.625 6.17582,-3.57 16.33202,-0.926 21.36332,5.758 3.3554,4.176 5.2382,5.07 8.1562,4.758 4.8086,-0.516 4.9922,-8.235 5.1797,-13.168 0.1484,-3.789 3.8437,-48.942 1.8203,-190.367 0,-38.973 30.6524,-89.008 104.0431,-89.008 134.363,0 214.926,63.543 214.926,202.215 0,11.695 -17.227,16.129 -28.973,16.129" /><path
         id="path24"
         style="fill:#ee4e1d;fill-opacity:1;fill-rule:nonzero;stroke:none"
         d="m 341.711,481.461 c 17.894,0 32.363,-14.414 32.363,-32.238 0,-17.828 -14.469,-32.243 -32.363,-32.243 -17.898,0 -32.367,14.415 -32.367,32.243 0,17.824 14.469,32.238 32.367,32.238" /></g></g></svg>