<svg width="123" height="33" viewBox="0 0 123 33" fill="none" xmlns="http://www.w3.org/2000/svg">
<path d="M38.4694 13.1725C38.8704 12.5048 39.4038 12.0055 40.0715 11.7048C40.7051 11.404 41.5392 11.2376 42.5397 11.2376C42.8405 11.2376 43.1734 11.2376 43.4741 11.2716C43.7748 11.3057 44.1418 11.3378 44.5749 11.3719V7.10109C44.3744 7.06704 44.1739 7.03489 43.9413 7.00084C43.7086 6.9668 43.4079 6.9668 43.1072 6.9668C41.6716 6.9668 40.5046 7.36777 39.6043 8.20188C38.6699 9.03599 37.9701 10.3713 37.4689 12.1719H37.3686V7.33373H33.1641V26.3839H37.4008V18.51C37.4008 17.2428 37.501 16.1741 37.6675 15.2738C37.8339 14.4057 38.1006 13.7059 38.4676 13.1725H38.4694Z" fill="#003C46"/>
<path d="M53.6516 26.8227C55.7529 26.8227 57.5554 26.3214 59.0572 25.2887C60.559 24.2882 61.6257 22.8526 62.3275 20.9839L58.7243 19.8491C58.2912 21.0501 57.6576 21.9504 56.8556 22.5178C56.0215 23.0852 54.9869 23.386 53.7537 23.386C52.1858 23.386 50.9507 22.8848 50.0163 21.8842C49.082 20.8836 48.5486 19.5162 48.4483 17.7477H62.0948C62.1289 16.4464 62.0286 15.2794 61.7941 14.1786C61.5614 13.0778 61.2267 12.0773 60.7935 11.1751C60.0937 9.8076 59.0913 8.73896 57.8581 8.00509C56.623 7.27123 55.1553 6.9043 53.4549 6.9043C50.7521 6.9043 48.5164 7.83865 46.782 9.70735C45.0476 11.6082 44.1794 14.0122 44.1794 16.9476C44.1794 19.8831 45.0476 22.3854 46.748 24.1539C48.4502 25.9223 50.7521 26.8227 53.6535 26.8227H53.6516ZM57.2547 12.6428C57.4212 13.0097 57.5554 13.4107 57.6557 13.7777C57.7559 14.1446 57.79 14.5777 57.8221 15.0449H48.5145C48.715 13.5431 49.2484 12.3761 50.1166 11.542C50.9847 10.7079 52.0855 10.3069 53.4189 10.3069C54.3193 10.3069 55.0872 10.5074 55.7548 10.9084C56.4225 11.3415 56.9218 11.9089 57.2566 12.6428H57.2547Z" fill="#003C46"/>
<path d="M75.9881 7.33691L71.0497 22.4511L65.8124 7.33691H61.4092L68.5152 26.3871H73.4196L80.2929 7.33691H75.9881Z" fill="#003C46"/>
<path d="M88.9345 26.8227C91.0359 26.8227 92.8384 26.3214 94.3402 25.2887C95.8419 24.2882 96.9087 22.8526 97.6104 20.9839L94.0073 19.8491C93.5742 21.0501 92.9405 21.9504 92.1386 22.5178C91.3045 23.0852 90.2699 23.386 89.0367 23.386C87.4687 23.386 86.2336 22.8848 85.2993 21.8842C84.3649 20.8836 83.8315 19.5162 83.7313 17.7477H97.3778C97.4118 16.4464 97.3116 15.2794 97.077 14.1786C96.8444 13.0778 96.5096 12.0773 96.0765 11.1751C95.3767 9.8076 94.3742 8.73896 93.141 8.00509C91.9059 7.27123 90.4382 6.9043 88.7378 6.9043C86.035 6.9043 83.7994 7.83865 82.065 9.70735C80.3306 11.6082 79.4624 14.0122 79.4624 16.9476C79.4624 19.8831 80.3306 22.3854 82.0309 24.1539C83.7332 25.9223 86.035 26.8227 88.9364 26.8227H88.9345ZM92.5377 12.6428C92.7041 13.0097 92.8384 13.4107 92.9386 13.7777C93.0389 14.1446 93.0729 14.5777 93.1051 15.0449H83.7975C83.998 13.5431 84.5314 12.3761 85.3995 11.542C86.2677 10.7079 87.3685 10.3069 88.7019 10.3069C89.6022 10.3069 90.3701 10.5074 91.0378 10.9084C91.7055 11.3415 92.2048 11.9089 92.5396 12.6428H92.5377Z" fill="#003C46"/>
<path d="M99.1265 26.3886H103.363V16.7463C103.363 14.7773 103.796 13.2093 104.664 12.0745C105.499 10.9396 106.7 10.3722 108.201 10.3722C109.569 10.3722 110.604 10.8054 111.237 11.6735C111.871 12.5417 112.171 13.9413 112.171 15.8441V26.3867H116.408V14.7092C116.408 12.1728 115.841 10.2379 114.74 8.9045C113.639 7.60321 112.037 6.93555 109.936 6.93555C108.5 6.93555 107.201 7.30248 106.066 8.07039C104.931 8.8383 104.031 9.90505 103.363 11.2725H103.297V7.33463H99.1265V26.3848V26.3886Z" fill="#003C46"/>
<path d="M118.353 26.3871H122.624V7.33691H118.353V26.3871Z" fill="#003C46"/>
<path d="M120.503 4.9933C119.124 4.9933 118.007 3.87548 118.007 2.49665C118.007 1.11782 119.126 0 120.503 0C121.88 0 123 1.11782 123 2.49665C123 3.87548 121.882 4.9933 120.503 4.9933Z" fill="#003C46"/>
<path d="M22.5045 13.9541V10.9752C22.5045 3.61652 6.51196 1.31641 3.70146 1.31641C2.14449 1.31641 1.21401 2.45631 1.21401 3.5582V6.53709C1.21401 9.77496 7.97465 10.4994 9.86182 14.537C7.74684 20.5286 0 24.5055 0 27.6925V30.6706C0 31.84 0.995253 32.8279 2.17317 32.8279C8.02982 32.8286 22.5045 21.2478 22.5045 13.9541Z" fill="#003C46"/>
<path d="M3.70567 2.87207C6.55282 2.87207 20.9535 5.2828 20.9535 10.9757C20.9535 17.2908 7.15626 28.2952 2.17739 28.2952C1.85062 28.2952 1.55981 28.008 1.55981 27.693C1.55981 25.5853 11.6983 19.2081 11.6983 12.916C11.6983 7.30034 2.77396 5.49209 2.77396 3.55867C2.77355 3.2374 3.12323 2.87207 3.70567 2.87207Z" fill="white"/>
</svg>
