<?xml version="1.0" encoding="utf-8"?>
<!-- Generator: Adobe Illustrator 25.2.3, SVG Export Plug-In . SVG Version: 6.00 Build 0)  -->
<svg version="1.1" id="Layer_1" xmlns="http://www.w3.org/2000/svg" xmlns:xlink="http://www.w3.org/1999/xlink" x="0px" y="0px"
	 viewBox="0 0 1100 300" style="enable-background:new 0 0 1100 300;" xml:space="preserve">
<style type="text/css">
	.st0{fill:#379ACC;}
	.st1{fill:#282523;}
</style>
<g>
	<path class="st0" d="M152.6,18.7l11.9,102.7l99.9,10.2c1.4,0.1,2.5-0.3,2.7-1c0.5-1.1-1.1-2.8-3.5-3.7c-0.1-0.1-0.1-0.1-0.1-0.1
		v-0.1c-20.8-8.1-42.9-22.8-63-43.1c-20.2-20.2-34.8-42.6-43.1-63.6c0-0.1,0-0.3-0.1-0.3c-1-2.4-2.7-4-3.8-3.5
		C152.8,16.2,152.5,17.4,152.6,18.7z"/>
	<path class="st0" d="M152.6,281.3l12-102.7l99.9-10.2c1.4-0.1,2.5,0.3,2.7,1c0.5,1.1-1.1,2.8-3.5,3.7c-0.1,0.1-0.1,0.1-0.1,0.1v0.1
		c-20.8,8.1-42.9,22.8-63,43.1c-20.2,20.2-34.8,42.6-43.1,63.6c0,0.1,0,0.3-0.1,0.3c-1,2.4-2.7,4-3.8,3.5
		C152.8,283.7,152.5,282.6,152.6,281.3z"/>
	<path class="st1" d="M114.6,18.7l-11.9,102.7L2.9,131.7c-1.4,0.1-2.5-0.3-2.7-1c-0.5-1.1,1.1-2.8,3.5-3.7c0.1-0.1,0.1-0.1,0.1-0.1
		v-0.1c20.8-8.1,42.9-22.8,63-43.1c20.2-20.2,34.8-42.6,43.1-63.6c0-0.1,0-0.3,0.1-0.3c1-2.4,2.7-4,3.8-3.5
		C114.5,16.2,114.7,17.4,114.6,18.7z"/>
	<path class="st1" d="M114.6,281.3l-12-102.7L2.8,168.3c-1.4-0.1-2.5,0.3-2.7,1c-0.5,1.1,1.1,2.8,3.5,3.7c0.1,0.1,0.1,0.1,0.1,0.1
		v0.1c20.8,8.1,42.9,22.8,63,43.1c20.2,20.2,34.8,42.6,43.1,63.6c0,0.1,0,0.3,0.1,0.3c1,2.4,2.7,4,3.8,3.5
		C114.5,283.7,114.7,282.6,114.6,281.3z"/>
	<g>
		<path class="st1" d="M1094.2,122.4c0.4-0.4,0.7-1,0.7-2c0-1.9-1.1-2.8-3.4-2.8h-3.7v9.2h1.6V123h0.9l2.8,3.8h1.9l-2.8-3.8
			C1093.2,123,1093.8,122.7,1094.2,122.4z M1090.7,121.7h-1.1V119h1.6c0.6,0,1.1,0.1,1.6,0.2c0.4,0.2,0.7,0.6,0.7,1.1
			c0,0.6-0.3,0.9-0.8,1.1c-0.3,0.1-0.5,0.2-0.9,0.2C1091.4,121.7,1091.1,121.7,1090.7,121.7z"/>
		<path class="st1" d="M1097.4,116.3c-1.7-1.6-3.8-2.4-6.3-2.5c-2.5,0-4.7,0.9-6.3,2.5c-1.7,1.6-2.6,3.7-2.7,6
			c0,2.3,0.9,4.3,2.7,5.9c1.6,1.6,3.7,2.5,6.3,2.5s4.6-0.9,6.3-2.5c1.6-1.6,2.6-3.5,2.6-5.9C1099.9,119.9,1099.1,117.9,1097.4,116.3
			z M1096.1,127.2c-1.3,1.3-3,1.9-5,1.9c-2.1,0-3.7-0.6-5-1.9s-2-2.9-2-4.8c0-2.1,0.7-3.7,2-4.9c1.3-1.2,2.9-1.9,5-1.9
			c2,0,3.7,0.6,5,1.9c1.3,1.2,2,2.8,2,4.9C1098.1,124.3,1097.4,126,1096.1,127.2z"/>
	</g>
	<polygon class="st1" points="377.4,207.8 377.4,161.1 328.3,161.1 328.3,207.8 308.4,207.8 308.4,98.5 328.3,98.5 328.3,142.7 
		377.4,142.7 377.4,98.5 397.3,98.5 397.3,207.8 	"/>
	<polygon class="st1" points="426.1,237.6 441.1,203.5 409.3,130.9 430.6,130.9 451.8,180.3 473.3,130.9 493.9,130.9 446.2,237.6 	
		"/>
	<path class="st1" d="M537.5,209.3c-23.4,0-41.7-17.9-41.7-40.8c0-21.7,18.4-39.4,41.2-39.4c9.4,0,18.3,3,24.7,8.2v-39h19v109.5h-19
		v-6.3C555.3,206.7,547,209.3,537.5,209.3z M539.2,146.9c-14.7,0-23.5,11.1-23.5,21.8c0,15,11.9,23,23.1,23
		c12.7,0,22.9-10,22.9-22.3C561.6,157.1,551.4,146.9,539.2,146.9z"/>
	<path class="st1" d="M597.3,207.8v-76.9h19v4c5.5-5.2,11.7-5.6,20-5.6h3.3v19.9l-4-0.9c-1.8-0.4-3.4-0.6-5-0.6
		c-9,0-14.2,6.1-14.2,16.8v43.2H597.3z"/>
	<path class="st1" d="M690.5,209.3c-24.4,0-42.7-17.2-42.7-40c0-22.5,18.8-40.1,42.7-40.1c23.9,0,42.7,17.7,42.7,40.1
		C733.1,192.2,714.8,209.3,690.5,209.3z M690.5,146.9c-12.6,0-22.7,10.1-22.7,22.5c0,11.9,10.7,22.3,22.7,22.3
		c12.1,0,22.7-10.4,22.7-22.3C713.2,157,703,146.9,690.5,146.9z"/>
	<path class="st1" d="M747.9,207.8V98.5h32.6c25.5,0,39.2,19.1,39.2,37.1c0,17.9-13.7,37-39.2,37h-12.7v35.1H747.9z M777.7,155
		c14.6,0,22-6.5,22-19.4c0-12.9-7.4-19.5-22-19.5h-9.9V155L777.7,155L777.7,155z"/>
	<path class="st1" d="M867.2,209.3c-24.4,0-42.7-17.2-42.7-40c0-22.5,18.8-40.1,42.7-40.1s42.7,17.7,42.7,40.1
		C909.9,192.2,891.6,209.3,867.2,209.3z M867.2,146.9c-12.6,0-22.8,10.1-22.8,22.5c0,11.9,10.7,22.3,22.8,22.3
		c12.1,0,22.7-10.4,22.7-22.3C890,157,879.8,146.9,867.2,146.9z"/>
	<path class="st1" d="M923.8,207.8v-76.9h19v76.9H923.8z M933.3,123.3c-6.6,0-12.1-5.3-12.1-11.7s5.4-11.7,12.1-11.7
		s12.1,5.3,12.1,11.7C945.3,118,939.9,123.3,933.3,123.3z"/>
	<path class="st1" d="M1008.7,207.8v-44.2c0-7.6-2.4-16.6-13.7-16.6c-10.1,0-15.7,6.4-15.7,18v42.8h-19v-76.9h19v3.6
		c4.6-3.4,10.7-5.3,17.1-5.3c14.5,0,31.3,7.8,31.3,29.7v48.8H1008.7z"/>
	<path class="st1" d="M1067.9,207.8c-14.2,0-20.1-5.3-20.1-18.3v-41.6h-10.1v-17h10.1v-17.1h19v17.1h11.6v17h-11.6v40.2
		c0,1.3,0.2,1.7,0.2,1.7s0.6,0.3,2.7,0.3h9v17.3l-3,0.3C1073.8,207.8,1071,207.8,1067.9,207.8z"/>
</g>
</svg>
